<?xml version="1.0" encoding="utf-8"?>
<!-- Generator: Adobe Illustrator 23.0.2, SVG Export Plug-In . SVG Version: 6.00 Build 0)  -->
<svg version="1.1" id="Layer_1" xmlns="http://www.w3.org/2000/svg" xmlns:xlink="http://www.w3.org/1999/xlink" x="0px" y="0px"
	 viewBox="0 0 100 100" style="enable-background:new 0 0 100 100;" xml:space="preserve">
<style type="text/css">
	.st0{fill:#FFFFFF;}
	.st1{fill:#D8D8D8;}
	.st2{fill:#3CC68A;}
	.st3{fill:#424242;}
</style>
<rect width="100" height="100"/>
<g>
	<polygon class="st0" points="16,21.4 16,32.9 16,44.3 16,55.7 27.4,55.7 27.4,44.3 27.4,32.9 27.4,21.4 	"/>
	<polygon class="st0" points="72.6,44.3 72.6,55.7 72.6,67.1 72.6,78.6 84,78.6 84,67.1 84,55.7 84,44.3 	"/>
	<polygon class="st0" points="49.8,21.4 49.8,32.9 49.8,43.8 61.2,55.2 61.2,44.3 61.2,32.9 	"/>
	<polygon class="st0" points="38.8,44.8 38.8,55.7 38.8,67.1 50.2,78.6 50.2,67.1 50.2,56.2 	"/>
	<polygon class="st1" points="49.8,21.4 61.2,21.4 84,44.3 72.6,44.3 	"/>
	<polygon class="st1" points="16,55.7 27.4,55.7 50.2,78.6 38.8,78.6 	"/>
	<polygon class="st2" points="61.2,32.9 61.2,44.3 61.2,55.1 27.4,21.4 27.4,32.9 27.4,33.6 27.4,44.3 27.4,55.7 38.8,67.1 
		38.8,55.7 38.8,44.9 72.6,78.6 72.6,67.1 72.6,66.4 72.6,55.7 72.6,44.3 	"/>
</g>
</svg>
