<?xml version="1.0" encoding="utf-8"?>
<!-- Generator: Adobe Illustrator 23.0.2, SVG Export Plug-In . SVG Version: 6.00 Build 0)  -->
<svg version="1.1" id="Layer_1" xmlns="http://www.w3.org/2000/svg" xmlns:xlink="http://www.w3.org/1999/xlink" x="0px" y="0px"
	 viewBox="0 0 1525.1 481.3" style="enable-background:new 0 0 1525.1 481.3;" xml:space="preserve">
<style type="text/css">
	.st0{fill:#FFFFFF;}
	.st1{fill:#D8D8D8;}
	.st2{fill:#3CC68A;}
	.st3{fill:#424242;}
</style>
<g>
	<path d="M550.8,221.9v136.7H519l-60.3-72.8v72.8h-37.9V221.9h31.8l60.3,72.8v-72.8H550.8z"/>
	<path d="M723,328.7v29.9H613.3V221.9h107.2v29.9h-68.9v23h60.7v28.9h-60.7v25H723z"/>
	<path d="M839.4,322.3h-21.1v36.3h-38.7V221.9h62.5c12.4,0,23.1,2,32.2,6.2c9.1,4.1,16.1,10,21.1,17.6s7.4,16.6,7.4,26.8
		c0,9.9-2.3,18.5-6.9,25.9c-4.6,7.4-11.2,13.1-19.8,17.3l29.5,43h-41.4L839.4,322.3z M857.7,257.7c-4-3.5-10-5.3-18-5.3h-21.5v40
		h21.5c7.9,0,13.9-1.7,18-5.2c4-3.4,6.1-8.4,6.1-14.7C863.8,266.1,861.7,261.2,857.7,257.7z"/>
	<path d="M1097.9,221.9l-58.6,136.7h-38.1l-58.4-136.7h41.8l37.1,89l37.9-89H1097.9z"/>
	<path class="st2" d="M1169.2,352.2c-11.5-6.1-20.6-14.6-27.1-25.4c-6.6-10.8-9.9-23-9.9-36.5s3.3-25.7,9.9-36.5
		c6.6-10.8,15.6-19.3,27.1-25.4c11.5-6.1,24.5-9.2,39-9.2c14.4,0,27.4,3.1,39,9.2c11.5,6.1,20.6,14.6,27.1,25.4
		c6.6,10.8,9.9,23,9.9,36.5s-3.3,25.7-9.9,36.5c-6.6,10.8-15.6,19.3-27.1,25.4c-11.5,6.1-24.5,9.2-39,9.2
		C1193.7,361.3,1180.7,358.3,1169.2,352.2z M1226.9,324.4c5.6-3.2,10-7.8,13.3-13.8c3.3-5.9,4.9-12.7,4.9-20.4s-1.6-14.5-4.9-20.4
		c-3.3-5.9-7.7-10.5-13.3-13.8c-5.6-3.2-11.8-4.9-18.7-4.9s-13.1,1.6-18.7,4.9c-5.6,3.3-10,7.8-13.3,13.8
		c-3.3,5.9-4.9,12.7-4.9,20.4s1.6,14.5,4.9,20.4c3.3,5.9,7.7,10.5,13.3,13.8c5.6,3.3,11.8,4.9,18.7,4.9S1221.3,327.7,1226.9,324.4z"
		/>
	<path d="M1355.4,357.2c-10.4-2.7-18.9-6.4-25.4-10.9l12.7-28.5c6.1,4,13.2,7.3,21.3,9.8c8.1,2.5,16,3.7,23.8,3.7
		c14.8,0,22.3-3.7,22.3-11.1c0-3.9-2.1-6.8-6.3-8.7c-4.2-1.9-11-3.9-20.4-6c-10.3-2.2-18.9-4.6-25.8-7.1
		c-6.9-2.5-12.8-6.6-17.8-12.2c-4.9-5.6-7.4-13.1-7.4-22.7c0-8.3,2.3-15.8,6.8-22.5c4.6-6.7,11.4-12,20.4-15.9
		c9-3.9,20.1-5.9,33.3-5.9c9,0,17.8,1,26.6,3c8.7,2,16.4,5,23,8.9l-11.9,28.7c-13-7-25.6-10.5-37.9-10.5c-7.7,0-13.3,1.1-16.8,3.4
		c-3.5,2.3-5.3,5.2-5.3,8.9c0,3.6,2.1,6.4,6.2,8.2c4.2,1.8,10.9,3.7,20.1,5.7c10.4,2.2,19,4.6,25.9,7.1c6.8,2.5,12.8,6.6,17.8,12.1
		c5,5.5,7.5,13.1,7.5,22.6c0,8.2-2.3,15.6-6.8,22.3c-4.6,6.6-11.4,11.9-20.5,15.9c-9.1,4-20.2,6-33.2,6
		C1376.5,361.3,1365.8,360,1355.4,357.2z"/>
	<g>
		<polygon class="st3" points="85,130.8 85,176.3 85,221.8 85,267.4 130.5,267.4 130.5,221.8 130.5,176.3 130.5,130.8 		"/>
		<polygon class="st3" points="310.7,221.8 310.7,267.4 310.7,312.9 310.7,358.4 356.2,358.4 356.2,312.9 356.2,267.4 356.2,221.8 
					"/>
		<polygon class="st3" points="219.6,130.8 219.6,176.3 219.6,219.9 265.1,265.4 265.1,221.8 265.1,176.3 		"/>
		<polygon class="st3" points="176.1,223.8 176.1,267.4 176.1,312.9 221.6,358.4 221.6,312.9 221.6,269.3 		"/>
		<polygon points="219.6,130.8 265.1,130.8 356.2,221.8 310.7,221.8 		"/>
		<polygon points="85,267.4 130.5,267.4 221.6,358.4 176.1,358.4 		"/>
		<polygon class="st2" points="265.1,176.3 265.1,221.8 265.1,264.8 130.5,130.8 130.5,176.3 130.5,179.1 130.5,221.8 130.5,267.4 
			176.1,312.9 176.1,267.4 176.1,224.4 310.7,358.4 310.7,312.9 310.7,310.1 310.7,267.4 310.7,221.8 		"/>
	</g>
</g>
</svg>
